<svg id="Capa_1" enable-background="new 0 0 512.057 512.057" height="512" viewBox="0 0 512.057 512.057" width="512" xmlns="http://www.w3.org/2000/svg"><g><g><g><path d="m288.743 49.059h-65.429c-4.219 0-7.639-3.42-7.639-7.639v-26.292c0-4.219 3.42-7.639 7.639-7.639h65.429c4.219 0 7.639 3.42 7.639 7.639v26.292c0 4.219-3.42 7.639-7.639 7.639z" fill="#5a5a5a"/></g><g><path d="m296.382 15.131v26.294c0 4.214-3.425 7.639-7.639 7.639h-19.972c4.214 0 7.639-3.425 7.639-7.639v-26.294c0-4.224-3.425-7.639-7.639-7.639h19.972c4.214-.001 7.639 3.414 7.639 7.639z" fill="#444"/></g><g><path d="m298.166 127.979c-1.497-18.459-4.749-36.523-11.348-53.544-6.285-16.211-8.723-25.375-8.723-25.375h-22.066-22.066s-2.438 9.164-8.723 25.375c-6.599 17.021-9.851 35.085-11.348 53.544-.332 4.091-.513 8.085-.458 11.717h42.596 42.596c.053-3.633-.128-7.626-.46-11.717z" fill="#5a5a5a"/></g><g><path d="m298.619 139.698h-19.982c.06-3.635-.13-7.629-.459-11.724-1.498-18.454-4.743-36.519-11.344-53.536-6.291-16.217-8.728-25.375-8.728-25.375h19.992s2.437 9.157 8.718 25.375c6.601 17.016 9.856 35.081 11.354 53.536.33 4.094.509 8.089.449 11.724z" fill="#444"/></g><g><path d="m298.624 169.001v-29.304h-85.191v29.304c0 9.311-4.082 18.154-11.167 24.194l-27.042 23.053c-7.086 6.04-11.167 14.883-11.167 24.194v242.031c0 12.203 9.892 22.095 22.095 22.095h139.753c12.203 0 22.095-9.892 22.095-22.095v-242.031c0-9.311-4.082-18.154-11.167-24.194l-27.042-23.053c-7.085-6.041-11.167-14.884-11.167-24.194z" fill="#fe9738"/></g><g><path d="m348.001 240.438v242.034c0 12.203-9.896 22.099-22.099 22.099h-19.972c12.203 0 22.099-9.896 22.099-22.099v-235.403c0-9.317-4.084-18.155-11.165-24.196l-27.042-23.058c-7.09-6.042-11.175-14.879-11.175-24.186v-35.93h19.972v29.299c0 9.317 4.084 18.155 11.175 24.196l27.042 23.058c7.081 6.031 11.165 14.879 11.165 24.186z" fill="#fe860a"/></g><g><path d="m164.056 253.688h183.944v205.088h-183.944z" fill="#5a5a5a"/></g><g><path d="m328.028 253.688h19.972v205.088h-19.972z" fill="#444"/></g><g><path d="m341.692 210.548-27.042-23.052c-5.425-4.625-8.537-11.367-8.537-18.495 0-23.939.345-47.393-4.619-71.004-1.879-8.938-4.39-17.751-7.693-26.27-2.381-6.14-4.19-11.234-5.52-15.179h.461c8.342 0 15.128-6.786 15.128-15.128v-26.292c.001-8.342-6.785-15.128-15.127-15.128h-65.429c-8.342 0-15.128 6.786-15.128 15.128v26.292c0 8.342 6.786 15.128 15.128 15.128h.461c-1.329 3.945-3.139 9.04-5.52 15.179-1.495 3.857.419 8.195 4.276 9.691 3.86 1.497 8.195-.42 9.691-4.276 3.562-9.186 5.916-16.163 7.317-20.594h32.977c1.401 4.43 3.758 11.408 7.318 20.594 5.696 14.69 9.25 31.517 10.866 51.443.101 1.248.186 2.456.253 3.621h-69.849c.066-1.165.15-2.374.252-3.622.564-6.947 1.333-13.315 2.352-19.463.676-4.081-2.084-7.937-6.164-8.614-4.093-.672-7.937 2.084-8.614 6.164-3.445 20.768-2.987 41.351-2.987 62.33 0 7.129-3.111 13.869-8.536 18.495l-27.042 23.052c-8.769 7.476-13.798 18.371-13.798 29.894v242.031c0 16.313 13.272 29.585 29.585 29.585h139.753c16.313 0 29.585-13.272 29.585-29.585v-242.031c0-11.523-5.029-22.418-13.798-29.894zm-118.378-168.979c-.082 0-.149-.067-.149-.149v-26.292c0-.082.067-.149.149-.149h65.429c.082 0 .149.067.149.149v26.292c0 .082-.067.149-.149.149zm117.197 409.716h-44.639c-4.137 0-7.49 3.353-7.49 7.49s3.353 7.49 7.49 7.49h44.639v16.208c0 8.053-6.552 14.606-14.606 14.606h-139.753c-8.053 0-14.606-6.552-14.606-14.606v-16.208h89.061c4.137 0 7.49-3.353 7.49-7.49s-3.353-7.49-7.49-7.49h-89.061v-190.108h168.965zm0-205.087h-168.965v-5.756c0-7.129 3.111-13.869 8.536-18.495l27.042-23.052c8.769-7.476 13.798-18.371 13.798-29.894v-21.815h70.212v21.815c0 11.522 5.029 22.417 13.798 29.894l27.042 23.053c5.425 4.624 8.536 11.365 8.536 18.494v5.756z"/></g></g><g><g><path d="m289.369 348.843h-66.68c-4.143 0-7.5-3.357-7.5-7.5s3.357-7.5 7.5-7.5h66.68c4.143 0 7.5 3.357 7.5 7.5s-3.358 7.5-7.5 7.5z"/></g><g><path d="m276.216 378.894h-40.376c-4.143 0-7.5-3.357-7.5-7.5s3.357-7.5 7.5-7.5h40.376c4.143 0 7.5 3.357 7.5 7.5s-3.357 7.5-7.5 7.5z"/></g></g></g></svg>